<!--?xml version="1.0" standalone="no"?-->
<svg id="sw-js-blob-svg" viewBox="0 0 100 100" xmlns="http://www.w3.org/2000/svg" version="1.1">
    <defs> 
        <linearGradient id="sw-gradient" x1="0" x2="1" y1="1" y2="0">
            <stop id="stop1" stop-color="#2be86b" offset="0%"></stop>
            <stop id="stop2" stop-color="#29fdbd" offset="100%"></stop>
        </linearGradient>
    </defs>
    <path fill="url(#sw-gradient)" d="M15.8,-25.7C20.5,-24.6,24.4,-20.5,29.9,-15.7C35.4,-10.9,42.5,-5.5,44.1,0.9C45.7,7.3,41.8,14.6,35.6,18.2C29.4,21.8,21,21.7,14.6,25.9C8.3,30.2,4.2,38.7,-1.9,42C-8,45.4,-16.1,43.6,-22.5,39.4C-28.8,35.2,-33.6,28.7,-35.8,21.7C-38.1,14.7,-37.9,7.4,-38.2,-0.2C-38.6,-7.8,-39.5,-15.5,-37.1,-22.3C-34.7,-29,-29,-34.7,-22.3,-34.7C-15.5,-34.7,-7.8,-29,-1.1,-27.1C5.5,-25.1,11,-26.9,15.8,-25.7Z" width="100%" height="100%" transform="translate(50 50)" style="transition: all 0.3s ease 0s;" stroke-width="0"></path>
</svg>