<!--?xml version="1.0" standalone="no"?-->
<svg id="sw-js-blob-svg" viewBox="0 0 100 100" xmlns="http://www.w3.org/2000/svg" version="1.1">
    <defs> 
        <linearGradient id="sw-gradient" x1="0" x2="1" y1="1" y2="0">
            <stop id="stop1" stop-color="#2be86b" offset="0%"></stop>
            <stop id="stop2" stop-color="#29fdbd" offset="100%"></stop>
        </linearGradient>
    </defs>
    <path fill="url(#sw-gradient)" d="M14.8,-17.5C18.5,-14.4,20.6,-9.2,21.8,-3.7C23.1,1.9,23.4,7.8,22.3,15.9C21.3,24.1,18.8,34.4,12.6,38.3C6.3,42.3,-3.6,39.8,-12,35.6C-20.4,31.4,-27.2,25.5,-32.9,17.9C-38.5,10.3,-43.1,0.9,-42.8,-8.7C-42.5,-18.4,-37.3,-28.3,-29.4,-30.7C-21.4,-33.1,-10.7,-27.9,-2.6,-24.8C5.5,-21.7,11,-20.7,14.8,-17.5Z" width="100%" height="100%" transform="translate(50 50)" style="transition: all 0.3s ease 0s;" stroke-width="0"></path>
</svg>